:SAMPLES-PER-SECOND 30
:FULLY-SPECIFIED
:DEGREES
150
root  34.93065121 36.49783998 -14.94966041 8.439530373 -9.085778236 4.546945572
lowerback  -7.425459862 -1.347599983 -1.04624033
upperback  -3.68208003 -1.297369957 -3.647779942
thorax  0.2991519868 -0.4998829961 -3.273360014
lowerneck  1.516669989 -20.02639961 -14.24429989
upperneck  11.47649956 -28.60950089 17.00429916
head  7.835451603 -13.53890038 4.766129971
lclavicle  0 -4.497500157e-015 -2.743230041e-014
lhumerus  -46.22109985 25.95199966 65.73470306
lradius  -0.04514743015 -6.507048965e-006 30.42289925
lwrist  4.824992743e-007 -3.790274832e-007 -27.23189735
lhand  -4.419437315e-031 -36.9654007 -10.70269966
lfingers  90 7.125020027 -90
lthumb  94.85264533 -25.53563328 101.1415517
rclavicle  0 -4.497500157e-015 -2.743230041e-014
rhumerus  -23.02339935 -37.27640152 -9.539917946
rradius  -5.16745672e-007 2.214343908e-008 54.0284996
rwrist  -7.499573258e-005 0.03438235447 -164.6929932
rhand  -1.773674342e-031 5.48183012 -6.743000031
rfingers  -90 -7.125020027 -90
rthumb  -84.40421718 -9.279186068 -58.71612387
rfemur  -13.69868946 17.2632103 11.30260277
rtibia  -1.69180429 -2.31730032 21.85814285
rfoot  0.2248912156 -23.70422173 -33.8115654
rtoes  3.993684289 19.61322492 -101.7494749
lfemur  -8.588746071 -17.00420189 -21.84060669
ltibia  2.339119434 -2.873757362 15.44230461
lfoot  1.212194204 -20.46684837 39.90071869
ltoes  -8.638437674 -18.10751767 -116.0497508
151
root  34.93248647 36.49823947 -14.95080032 8.43309021 -9.090414047 4.552084923
lowerback  -7.443689823 -1.335710049 -1.029420376
upperback  -3.674069881 -1.281669974 -3.657469988
thorax  0.3176099956 -0.4922260046 -3.292229891
lowerneck  1.534870028 -20.02459908 -14.26780033
upperneck  11.4630003 -28.61540222 17.07150078
head  7.836725235 -13.53929996 4.788980007
lclavicle  0 -4.497500157e-015 -2.743230041e-014
lhumerus  -46.23040009 25.96349907 65.70480347
lradius  -0.04489713535 -6.507048965e-006 30.42930031
lwrist  4.824992743e-007 -3.790274832e-007 -27.29520035
lhand  -0 -37.3423996 -10.82909966
lfingers  90 7.125020027 -90
lthumb  95.05768548 -25.64579509 101.5569128
rclavicle  0 -4.497500157e-015 -2.743230041e-014
rhumerus  -22.67029953 -37.65010452 -9.441578865
rradius  -5.16745672e-007 2.214343908e-008 52.92449951
rwrist  -7.499573258e-005 0.03438235447 -164.4680023
rhand  -1.773899217e-031 5.55700016 -6.874619961
rfingers  -90 -7.125020027 -90
rthumb  -84.45481231 -9.1713312 -58.65379565
rfemur  -13.69788933 17.24696159 11.29636478
rtibia  -1.696998119 -2.331449032 21.86579132
rfoot  0.2110182494 -23.73535919 -33.8127594
rtoes  3.990627032 19.61382367 -101.7403671
lfemur  -8.593223572 -16.99692345 -21.83867836
ltibia  2.333076239 -2.867138147 15.44602013
lfoot  1.221644044 -20.48701477 39.92717361
ltoes  -8.618808588 -18.11662437 -115.9866097
152
root  34.9330782 36.50106595 -14.95116677 8.432583809 -9.073328972 4.541882038
lowerback  -7.432189465 -1.341259956 -1.031749845
upperback  -3.666320086 -1.289319992 -3.663729906
thorax  0.3187839985 -0.4961969852 -3.297820091
lowerneck  1.516780019 -20.02721786 -14.24800014
upperneck  11.46269989 -28.61479759 17.05780029
head  7.84100914 -13.54024887 4.781375408
lclavicle  0 -4.497500157e-015 -2.743230041e-014
lhumerus  -46.23350143 26.01180077 65.65650177
lradius  -0.04464356974 -6.507048965e-006 30.40509796
lwrist  4.824992743e-007 -3.790274832e-007 -27.30739975
lhand  -4.444038413e-031 -37.38479996 -10.8295002
lfingers  90 7.125020027 -90
lthumb  95.07773087 -25.64454171 101.6022255
rclavicle  0 -4.497500157e-015 -2.743230041e-014
rhumerus  -22.22369957 -37.4665947 -9.319469452
rradius  -5.16745672e-007 2.214343908e-008 51.82540131
rwrist  -7.499573258e-005 0.03438235447 -164.5099945
rhand  -1.773641251e-031 5.470680237 -7.113200188
rfingers  -90 -7.125020027 -90
rthumb  -84.60154391 -8.962046803 -58.75782
rfemur  -13.68406296 17.23833466 11.30550575
rtibia  -1.699314594 -2.327713966 21.83855438
rfoot  0.2286102027 -23.71525764 -33.81379318
rtoes  3.988671861 19.61420632 -101.7345426
lfemur  -8.639276505 -17.02820015 -21.81498337
ltibia  2.294247389 -2.891369343 15.52219582
lfoot  1.210677266 -20.47737885 39.88887024
ltoes  -8.629093344 -18.11185611 -116.019689
153
root  34.93501258 36.5020752 -14.95177952 8.416190147 -9.065332413 4.56500721
lowerback  -7.436990261 -1.328469992 -1.00225997
upperback  -3.663049936 -1.27452004 -3.663737535
thorax  0.3195429742 -0.4893839955 -3.315140009
lowerneck  1.515730023 -20.03168106 -14.26290035
upperneck  11.47000027 -28.6257 17.08659935
head  7.852385044 -13.54166698 4.785672188
lclavicle  0 -4.497500157e-015 -2.743230041e-014
lhumerus  -46.23199844 26.03770065 65.60620117
lradius  -0.04438632727 -6.507048965e-006 30.36160088
lwrist  4.824992743e-007 -3.790274832e-007 -27.37540054
lhand  -0 -37.32419968 -10.84549999
lfingers  90 7.125020027 -90
lthumb  95.05268538 -25.66243413 101.5389446
rclavicle  0 -4.497500157e-015 -2.743230041e-014
rhumerus  -21.87080002 -37.66059494 -9.167910576
rradius  -5.16745672e-007 2.214343908e-008 50.79019928
rwrist  -7.499573258e-005 0.03438235447 -164.4609985
rhand  -1.774356042e-031 5.706610203 -6.996210098
rfingers  -90 -7.125020027 -90
rthumb  -84.48185154 -9.077020123 -58.51794421
rfemur  -13.66672897 17.1671524 11.29031754
rtibia  -1.7006042 -2.35728693 21.84382248
rfoot  0.2383407801 -23.76458168 -33.75231552
rtoes  4.001042536 19.61178188 -101.7713968
lfemur  -8.636775017 -16.97865105 -21.84130096
ltibia  2.301090956 -2.893065453 15.52193832
lfoot  1.202685714 -20.48627281 39.82852936
ltoes  -8.637241411 -18.10807341 -116.0459019
154
root  34.93861401 36.50430394 -14.95250191 8.416200638 -9.076551437 4.581156254
lowerback  -7.419149399 -1.314650059 -0.970310986
upperback  -3.655430079 -1.260419965 -3.663120031
thorax  0.3203353882 -0.4834749997 -3.32949996
lowerneck  1.487509966 -20.03498459 -14.2979002
upperneck  11.49619961 -28.63779831 17.1012001
head  7.87526989 -13.5433073 4.790051937
lclavicle  0 -4.497500157e-015 -2.743230041e-014
lhumerus  -46.22579956 26.04170036 65.60739899
lradius  -0.04412501305 -6.507048965e-006 30.34610176
lwrist  4.824992743e-007 -3.790274832e-007 -27.37330246
lhand  -0 -37.36460114 -10.84029961
lfingers  90 7.125020027 -90
lthumb  95.07065872 -25.65595662 101.5817448
rclavicle  0 -4.497500157e-015 -2.743230041e-014
rhumerus  -21.4878006 -37.91939926 -9.043930054
rradius  -5.16745672e-007 2.214343908e-008 49.71829987
rwrist  -7.499573258e-005 0.03438235447 -164.2920074
rhand  -0 5.781700134 -7.002190113
rfingers  -90 -7.125020027 -90
rthumb  -84.46638851 -9.07669101 -58.44512999
rfemur  -13.67262363 17.17654037 11.26597977
rtibia  -1.701712966 -2.354138374 21.84916115
rfoot  0.2381227762 -23.7382412 -33.758564
rtoes  4.000438131 19.61190051 -101.7695961
lfemur  -8.661237717 -16.98763084 -21.85725594
ltibia  2.290411472 -2.916473627 15.54384422
lfoot  1.190623283 -20.45684052 39.8060379
ltoes  -8.603924867 -18.12351224 -115.9387535
155
root  34.94199618 36.50389844 -14.95329789 8.425751686 -9.093754768 4.571243763
lowerback  -7.403080463 -1.305050135 -0.9721121192
upperback  -3.647520065 -1.248639941 -3.666879892
thorax  0.3226070106 -0.4779430032 -3.331219912
lowerneck  1.462779999 -20.03849983 -14.31169987
upperneck  11.5302 -28.6427002 17.08720016
head  7.891098499 -13.54492474 4.782778263
lclavicle  0 -4.497500157e-015 -2.743230041e-014
lhumerus  -46.24319839 25.99670029 65.58390045
lradius  -0.04385922849 -6.507048965e-006 30.34033203
lwrist  4.824992743e-007 -3.790274832e-007 -27.36815262
lhand  -0 -37.3893013 -10.84599972
lfingers  90 7.125020027 -90
lthumb  95.08356284 -25.66051135 101.6087012
rclavicle  0 -4.497500157e-015 -2.743230041e-014
rhumerus  -21.20499802 -38.18719864 -8.944683075
rradius  -5.16745672e-007 2.214343908e-008 48.86750031
rwrist  -7.499573258e-005 0.03438235447 -163.9620056
rhand  -1.775204413e-031 5.974359989 -7.004710197
rfingers  -90 -7.125020027 -90
rthumb  -84.4197498 -9.086832989 -58.25732061
rfemur  -13.67060375 17.17115211 11.258564
rtibia  -1.702644706 -2.370662212 21.81783104
rfoot  0.2509358227 -23.76607895 -33.73926926
rtoes  3.977366091 19.6164152 -101.7008647
lfemur  -8.716376305 -16.96653557 -21.82164001
ltibia  2.249896288 -2.908771515 15.60497475
lfoot  1.200265288 -20.50720406 39.81824875
ltoes  -8.659573585 -18.09768288 -116.1177732
156
root  34.94264197 36.5015946 -14.95408336 8.425132751 -9.077955246 4.573051453
lowerback  -7.400440216 -1.29618001 -0.956867516
upperback  -3.640320063 -1.236979961 -3.686840057
thorax  0.3283190131 -0.4722079933 -3.359730005
lowerneck  1.475950003 -20.04380035 -14.25720024
upperneck  11.5177002 -28.64729881 17.08309937
head  7.877013683 -13.54627037 4.777342319
lclavicle  0 -4.497500157e-015 -2.743230041e-014
lhumerus  -46.25159836 25.95949936 65.5460968
lradius  -0.04358856753 -6.507048965e-006 30.34720039
lwrist  4.824992743e-007 -3.790274832e-007 -27.36490059
lhand  -4.445740744e-031 -37.41350174 -10.77779961
lfingers  90 7.125020027 -90
lthumb  95.07977838 -25.59281199 101.6280799
rclavicle  0 -4.497500157e-015 -2.743230041e-014
rhumerus  -20.94510078 -38.35649872 -8.83796978
rradius  -5.16745672e-007 2.214343908e-008 47.95970154
rwrist  -7.499573258e-005 0.03438235447 -163.6790009
rhand  -1.774470142e-031 5.743360043 -7.006909847
rfingers  -90 -7.125020027 -90
rthumb  -84.4784032 -9.070244749 -58.48299879
rfemur  -13.67437935 17.18379402 11.25618362
rtibia  -1.703403711 -2.375208139 21.82671356
rfoot  0.2417056412 -23.77797127 -33.75740433
rtoes  3.941305921 19.62341667 -101.5934722
lfemur  -8.673863411 -17.03503609 -21.84726715
ltibia  2.278346062 -2.932616949 15.55510998
lfoot  1.199701667 -20.42503738 39.86584854
ltoes  -8.676014735 -18.09001178 -116.1707111
